<?xml version="1.0" standalone="no"?>
<!DOCTYPE svg PUBLIC "-//W3C//DTD SVG 20010904//EN"
 "http://www.w3.org/TR/2001/REC-SVG-20010904/DTD/svg10.dtd">
<svg version="1.0" xmlns="http://www.w3.org/2000/svg"
 width="200.000000pt" height="200.000000pt" viewBox="0 0 200.000000 200.000000"
 preserveAspectRatio="xMidYMid meet">
<metadata>
Created by potrace 1.14, written by Peter Selinger 2001-2017
</metadata>
<g transform="translate(0.000000,200.000000) scale(0.100000,-0.100000)"
fill="#000000" stroke="none">
<path d="M0 1000 l0 -1000 1000 0 1000 0 0 1000 0 1000 -1000 0 -1000 0 0
-1000z m1175 672 c83 -47 153 -91 157 -96 4 -6 8 -95 8 -197 l0 -187 -170 -97
-170 -98 -170 98 -170 97 0 187 c0 102 4 191 8 197 15 21 327 194 342 189 8
-4 83 -45 165 -93z m-365 -812 c0 -28 -3 -30 -35 -30 -32 0 -35 2 -35 30 0 28
3 30 35 30 32 0 35 -2 35 -30z m-323 -16 c7 -10 13 -35 13 -56 0 -36 -2 -38
-30 -38 -27 0 -30 3 -30 29 0 34 -12 45 -40 36 -16 -5 -20 -15 -20 -56 l0 -49
38 0 c21 0 48 -7 60 -16 19 -13 22 -24 22 -91 0 -97 -12 -113 -85 -113 -65 0
-85 15 -92 68 l-6 42 37 0 c33 0 36 -2 36 -30 0 -25 4 -30 25 -30 25 0 26 2
23 58 l-3 57 -42 3 c-55 4 -73 29 -73 99 0 97 18 115 109 108 29 -2 50 -9 58
-21z m213 -83 c5 -11 10 -31 10 -45 0 -22 -4 -26 -30 -26 -23 0 -30 4 -30 20
0 15 -7 20 -25 20 -25 0 -25 0 -25 -95 0 -95 0 -95 25 -95 20 0 25 5 25 25 0
21 5 25 30 25 27 0 30 -3 30 -32 0 -48 -24 -68 -82 -68 -86 0 -88 3 -88 143 0
82 4 127 12 135 7 7 39 12 75 12 51 0 64 -3 73 -19z m110 -126 l0 -145 -35 0
-35 0 0 145 0 145 35 0 35 0 0 -145z m198 133 c7 -7 12 -40 12 -80 l0 -68 -55
0 -55 0 0 -40 c0 -36 3 -40 25 -40 18 0 25 5 25 20 0 16 7 20 30 20 27 0 30
-3 30 -29 0 -45 -23 -61 -85 -61 -80 0 -85 8 -85 149 0 78 4 121 12 129 7 7
39 12 73 12 34 0 66 -5 73 -12z m210 0 c8 -8 12 -55 12 -145 l0 -133 -30 0
-30 0 0 120 0 120 -25 0 -25 0 0 -120 0 -120 -30 0 -30 0 0 145 0 145 73 0
c43 0 78 -5 85 -12z m210 0 c7 -7 12 -27 12 -45 0 -30 -3 -33 -30 -33 -23 0
-30 4 -30 20 0 15 -7 20 -25 20 -25 0 -25 0 -25 -95 0 -95 0 -95 25 -95 20 0
25 5 25 25 0 21 5 25 30 25 28 0 30 -2 30 -40 0 -48 -18 -60 -86 -60 -76 0
-84 13 -84 142 0 142 3 148 83 148 36 0 68 -5 75 -12z m210 0 c7 -7 12 -40 12
-80 l0 -68 -55 0 -55 0 0 -40 c0 -36 3 -40 25 -40 18 0 25 5 25 20 0 16 7 20
30 20 27 0 30 -3 30 -29 0 -45 -23 -61 -85 -61 -80 0 -85 8 -85 149 0 78 4
121 12 129 7 7 39 12 73 12 34 0 66 -5 73 -12z"/>
<path d="M853 1622 l-133 -77 0 -160 0 -161 135 -77 c74 -42 139 -77 145 -77
6 0 71 35 145 77 l135 77 0 161 0 160 -134 78 c-74 42 -141 77 -148 77 -7 -1
-73 -36 -145 -78z m165 -58 c2 -16 12 -38 23 -50 14 -14 19 -33 17 -57 -3 -44
4 -52 31 -36 29 19 36 5 16 -29 -17 -28 -16 -31 4 -76 11 -27 18 -53 14 -60
-4 -6 -6 -19 -4 -30 5 -32 -14 -10 -43 52 -28 59 -30 60 -74 64 l-45 3 -30
-62 c-29 -64 -51 -91 -46 -57 2 11 0 24 -4 30 -4 7 3 33 14 60 20 44 20 49 5
75 -9 15 -16 30 -16 33 0 12 38 6 43 -6 8 -24 21 3 19 40 -2 28 3 43 18 57 11
10 20 30 20 45 0 50 33 53 38 4z"/>
<path d="M980 1485 c-10 -12 -10 -18 0 -30 8 -9 10 -28 6 -48 -4 -23 -3 -28 4
-17 9 13 11 13 20 0 7 -11 8 -6 4 17 -4 20 -2 39 6 48 15 18 6 45 -13 45 -8 0
-20 -7 -27 -15z"/>
<path d="M917 734 c-4 -4 -7 -22 -7 -41 0 -29 3 -33 26 -33 23 0 25 3 22 37
-3 36 -23 54 -41 37z"/>
<path d="M1547 734 c-4 -4 -7 -22 -7 -41 0 -29 3 -33 26 -33 23 0 25 3 22 37
-3 36 -23 54 -41 37z"/>
</g>
</svg>
